<!-- AutoClick Logo SVG -->
<svg width="120" height="120" viewBox="0 0 120 120" xmlns="http://www.w3.org/2000/svg">
  <!-- Gradientes -->
  <defs>
    <!-- Gradiente principal (azul Solarized) -->
    <radialGradient id="mainGradient" cx="50%" cy="30%" r="70%">
      <stop offset="0%" style="stop-color:#268bd2;stop-opacity:1" />
      <stop offset="100%" style="stop-color:#1e6fa8;stop-opacity:1" />
    </radialGradient>
    
    <!-- Gradiente para engranaje -->
    <linearGradient id="gearGradient" x1="0%" y1="0%" x2="100%" y2="100%">
      <stop offset="0%" style="stop-color:#2aa198;stop-opacity:1" />
      <stop offset="100%" style="stop-color:#1f8a80;stop-opacity:1" />
    </linearGradient>
    
    <!-- Sombra -->
    <filter id="dropshadow">
      <feDropShadow dx="2" dy="4" stdDeviation="3" flood-opacity="0.3"/>
    </filter>
    
    <!-- Brillo interno -->
    <filter id="innerGlow">
      <feGaussianBlur stdDeviation="2" result="coloredBlur"/>
      <feMerge> 
        <feMergeNode in="coloredBlur"/>
        <feMergeNode in="SourceGraphic"/>
      </feMerge>
    </filter>
  </defs>
  
  <!-- Círculo de fondo -->
  <circle cx="60" cy="60" r="55" fill="url(#mainGradient)" filter="url(#dropshadow)" opacity="0.9"/>
  
  <!-- Cursor/Mouse pointer principal -->
  <g transform="translate(35, 25)">
    <!-- Cuerpo del cursor -->
    <path d="M5 5 L5 45 L15 35 L25 40 L35 25 L20 20 L30 10 Z" 
          fill="#fdf6e3" 
          stroke="#002b36" 
          stroke-width="1.5" 
          filter="url(#innerGlow)"/>
    
    <!-- Detalles del cursor -->
    <circle cx="12" cy="15" r="2" fill="#268bd2"/>
    <circle cx="20" cy="25" r="1.5" fill="#dc322f"/>
  </g>
  
  <!-- Engranaje pequeño (automatización) -->
  <g transform="translate(70, 70)">
    <circle cx="0" cy="0" r="12" fill="url(#gearGradient)"/>
    <!-- Dientes del engranaje -->
    <g fill="url(#gearGradient)">
      <rect x="-2" y="-15" width="4" height="6" rx="1"/>
      <rect x="-2" y="9" width="4" height="6" rx="1"/>
      <rect x="-15" y="-2" width="6" height="4" rx="1"/>
      <rect x="9" y="-2" width="6" height="4" rx="1"/>
      <!-- Diagonales -->
      <rect x="8" y="-10" width="4" height="4" rx="1" transform="rotate(45)"/>
      <rect x="-12" y="6" width="4" height="4" rx="1" transform="rotate(45)"/>
      <rect x="6" y="8" width="4" height="4" rx="1" transform="rotate(-45)"/>
      <rect x="-10" y="-12" width="4" height="4" rx="1" transform="rotate(-45)"/>
    </g>
    <!-- Centro del engranaje -->
    <circle cx="0" cy="0" r="5" fill="#002b36"/>
    <circle cx="0" cy="0" r="2" fill="#93a1a1"/>
  </g>
  
  <!-- Partículas de acción (clicks) -->
  <g opacity="0.8">
    <circle cx="25" cy="70" r="2" fill="#b58900">
      <animate attributeName="opacity" values="0;1;0" dur="2s" repeatCount="indefinite"/>
    </circle>
    <circle cx="80" cy="30" r="1.5" fill="#859900">
      <animate attributeName="opacity" values="0;1;0" dur="2.5s" repeatCount="indefinite"/>
    </circle>
    <circle cx="45" cy="85" r="2.5" fill="#d33682">
      <animate attributeName="opacity" values="0;1;0" dur="1.8s" repeatCount="indefinite"/>
    </circle>
  </g>
  
  <!-- Rayos de velocidad -->
  <g opacity="0.6" stroke="#cb4b16" stroke-width="2" fill="none">
    <path d="M20 40 L28 38">
      <animate attributeName="opacity" values="0;0.8;0" dur="1.5s" repeatCount="indefinite"/>
    </path>
    <path d="M22 45 L32 43">
      <animate attributeName="opacity" values="0;0.8;0" dur="1.7s" repeatCount="indefinite" begin="0.3s"/>
    </path>
    <path d="M24 50 L35 48">
      <animate attributeName="opacity" values="0;0.8;0" dur="1.6s" repeatCount="indefinite" begin="0.6s"/>
    </path>
  </g>
  
  <!-- Anillo exterior decorativo -->
  <circle cx="60" cy="60" r="57" fill="none" stroke="#073642" stroke-width="1" opacity="0.3"/>
</svg>